<?xml version="1.0" encoding="utf-8"?>
<!-- Generator: Adobe Illustrator 17.0.0, SVG Export Plug-In . SVG Version: 6.00 Build 0)  -->
<!DOCTYPE svg PUBLIC "-//W3C//DTD SVG 1.1//EN" "http://www.w3.org/Graphics/SVG/1.1/DTD/svg11.dtd">
<svg version="1.1" xmlns="http://www.w3.org/2000/svg" xmlns:xlink="http://www.w3.org/1999/xlink" x="0px" y="0px" width="154px"
	 height="40px" viewBox="0 0 154 40" enable-background="new 0 0 154 40" xml:space="preserve">
<g id="Final_Windows">
	<text transform="matrix(1 0 0 1 40.833 15.5942)"><tspan x="0" y="0" fill="#FFFFFF" font-family="'SegoePro'" font-size="11.5">Do</tspan><tspan x="13.972" y="0" fill="#FFFFFF" font-family="'SegoePro'" font-size="11.5">w</tspan><tspan x="22.172" y="0" fill="#FFFFFF" font-family="'SegoePro'" font-size="11.5">n</tspan><tspan x="28.474" y="0" fill="#FFFFFF" font-family="'SegoePro'" font-size="11.5">load</tspan><tspan x="49.53" y="0" fill="#FFFFFF" font-family="'SegoePro'" font-size="11.5"> </tspan><tspan x="51.738" y="0" fill="#FFFFFF" font-family="'SegoePro'" font-size="11.5">f</tspan><tspan x="55.096" y="0" fill="#FFFFFF" font-family="'SegoePro'" font-size="11.5">r</tspan><tspan x="58.638" y="0" fill="#FFFFFF" font-family="'SegoePro'" font-size="11.5">om</tspan><tspan x="0" y="18.75" fill="#FFFFFF" font-family="'SegoePro'" font-size="16.75">W</tspan><tspan x="13.852" y="18.75" fill="#FFFFFF" font-family="'SegoePro'" font-size="16.75">i</tspan><tspan x="17.168" y="18.75" fill="#FFFFFF" font-family="'SegoePro'" font-size="16.75">n</tspan><tspan x="26.465" y="18.75" fill="#FFFFFF" font-family="'SegoePro'" font-size="16.75">d</tspan><tspan x="35.409" y="18.75" fill="#FFFFFF" font-family="'SegoePro'" font-size="16.75">o</tspan><tspan x="44.052" y="18.75" fill="#FFFFFF" font-family="'SegoePro'" font-size="16.75">ws St</tspan><tspan x="80.365" y="18.75" fill="#FFFFFF" font-family="'SegoePro'" font-size="16.75">o</tspan><tspan x="89.092" y="18.75" fill="#FFFFFF" font-family="'SegoePro'" font-size="16.75">re</tspan></text>
	<rect x="0" fill="#0A8C44" width="154" height="40"/>
	<path fill="#FFFFFF" d="M20.139,7.56c0.05,0.225,0.079,0.497,0.084,0.819c-1.15,0.496-1.593,0.852-1.573,2.558v1.044l-0.788,0.159
		v-1.21C17.862,8.418,18.823,8.021,20.139,7.56 M22.43,7.022c0.052,0.243,0.094,0.509,0.122,0.792c2.06-0.296,2.02,0.555,2.02,2.328
		v0.655l0.78-0.16v-0.495C25.352,7.387,24.922,6.648,22.43,7.022 M14.312,12.85V9.227c-0.025-2.245,1.134-2.933,3.274-3.435
		c3.224-0.756,3.429,1.322,3.429,2.646v3.07l0.789-0.159V8.505c-0.008-2.503-0.788-4.377-4.375-3.563
		c-1.933,0.438-3.905,0.931-3.905,4.21v3.855L14.312,12.85z M23.755,22.372h-6.067v-4.39l6.067-0.889V22.372z M23.755,28.575
		l-6.067-0.887v-4.711h6.067V28.575z M17.084,22.372h-4.813v-3.675l4.813-0.68V22.372z M17.084,27.65l-4.813-0.678v-3.995h4.813
		V27.65z M29.296,10.804L7.608,15.141v15.774l21.688,4.336l4.336-1.576V12.381L29.296,10.804z"/>
	<text transform="matrix(1 0 0 1 40.833 15.5942)"><tspan x="0" y="0" fill="#FFFFFF" font-family="'SegoePro'" font-size="11.5">Do</tspan><tspan x="13.972" y="0" fill="#FFFFFF" font-family="'SegoePro'" font-size="11.5">w</tspan><tspan x="22.172" y="0" fill="#FFFFFF" font-family="'SegoePro'" font-size="11.5">n</tspan><tspan x="28.474" y="0" fill="#FFFFFF" font-family="'SegoePro'" font-size="11.5">load</tspan><tspan x="49.53" y="0" fill="#FFFFFF" font-family="'SegoePro'" font-size="11.5"> </tspan><tspan x="51.738" y="0" fill="#FFFFFF" font-family="'SegoePro'" font-size="11.5">f</tspan><tspan x="55.096" y="0" fill="#FFFFFF" font-family="'SegoePro'" font-size="11.5">r</tspan><tspan x="58.638" y="0" fill="#FFFFFF" font-family="'SegoePro'" font-size="11.5">om</tspan><tspan x="0" y="18.75" fill="#FFFFFF" font-family="'SegoePro'" font-size="16.75">W</tspan><tspan x="13.852" y="18.75" fill="#FFFFFF" font-family="'SegoePro'" font-size="16.75">i</tspan><tspan x="17.168" y="18.75" fill="#FFFFFF" font-family="'SegoePro'" font-size="16.75">n</tspan><tspan x="26.465" y="18.75" fill="#FFFFFF" font-family="'SegoePro'" font-size="16.75">d</tspan><tspan x="35.409" y="18.75" fill="#FFFFFF" font-family="'SegoePro'" font-size="16.75">o</tspan><tspan x="44.052" y="18.75" fill="#FFFFFF" font-family="'SegoePro'" font-size="16.75">ws St</tspan><tspan x="80.365" y="18.75" fill="#FFFFFF" font-family="'SegoePro'" font-size="16.75">o</tspan><tspan x="89.092" y="18.75" fill="#FFFFFF" font-family="'SegoePro'" font-size="16.75">re</tspan></text>
	<rect x="0" width="154" height="40"/>
	<path fill="#FFFFFF" d="M20.139,7.56c0.05,0.225,0.079,0.497,0.084,0.819c-1.15,0.496-1.593,0.852-1.573,2.558v1.044l-0.788,0.159
		v-1.21C17.862,8.418,18.823,8.021,20.139,7.56 M22.43,7.022c0.052,0.243,0.094,0.509,0.122,0.792c2.06-0.296,2.02,0.555,2.02,2.328
		v0.655l0.78-0.16v-0.495C25.352,7.387,24.922,6.648,22.43,7.022 M14.312,12.85V9.227c-0.025-2.245,1.134-2.933,3.274-3.435
		c3.224-0.756,3.429,1.322,3.429,2.646v3.07l0.789-0.159V8.505c-0.008-2.503-0.788-4.377-4.375-3.563
		c-1.933,0.438-3.905,0.931-3.905,4.21v3.855L14.312,12.85z M23.755,22.372h-6.067v-4.39l6.067-0.889V22.372z M23.755,28.575
		l-6.067-0.887v-4.711h6.067V28.575z M17.084,22.372h-4.813v-3.675l4.813-0.68V22.372z M17.084,27.65l-4.813-0.678v-3.995h4.813
		V27.65z M29.296,10.804L7.608,15.141v15.774l21.688,4.336l4.336-1.576V12.381L29.296,10.804z"/>
</g>
<g id="EN">
	<path fill="#FFFFFF" d="M48.345,11.39c0,0.808-0.177,1.52-0.531,2.137c-0.354,0.617-0.857,1.093-1.509,1.427
		c-0.652,0.333-1.398,0.5-2.239,0.5h-2.095V7.525h2.189C46.95,7.525,48.345,8.814,48.345,11.39z M47.372,11.412
		c0-2.031-1.078-3.047-3.234-3.047H42.9v6.248h1.177c1.047,0,1.858-0.279,2.433-0.838C47.085,13.217,47.372,12.429,47.372,11.412z
		 M54.93,12.601c0,0.899-0.255,1.622-0.766,2.17c-0.511,0.547-1.195,0.821-2.054,0.821c-0.837,0-1.505-0.267-2.004-0.8
		c-0.5-0.532-0.75-1.233-0.75-2.103c0-0.936,0.256-1.676,0.769-2.219c0.512-0.544,1.218-0.815,2.118-0.815
		c0.84,0,1.498,0.262,1.974,0.787C54.692,10.967,54.93,11.686,54.93,12.601z M54.001,12.634c0-0.711-0.158-1.257-0.473-1.637
		c-0.315-0.38-0.766-0.569-1.352-0.569c-0.583,0-1.043,0.194-1.382,0.583c-0.339,0.39-0.509,0.938-0.509,1.645
		c0,0.679,0.171,1.208,0.512,1.59c0.341,0.382,0.801,0.572,1.379,0.572c0.589,0,1.041-0.189,1.354-0.564
		C53.844,13.878,54.001,13.338,54.001,12.634z M63.465,9.792l-1.697,5.661h-0.94L59.662,11.4c-0.041-0.14-0.07-0.312-0.088-0.519
		h-0.022c-0.011,0.129-0.05,0.299-0.116,0.509l-1.266,4.064h-0.906l-1.708-5.661h0.951l1.166,4.257
		c0.037,0.147,0.063,0.317,0.078,0.509h0.044c0.007-0.14,0.042-0.314,0.105-0.519l1.299-4.246h0.83l1.177,4.268
		c0.037,0.144,0.063,0.313,0.078,0.509h0.044c0.007-0.177,0.037-0.346,0.089-0.509l1.155-4.268H63.465z M69.22,15.453h-0.906v-3.229
		c0-1.198-0.439-1.797-1.316-1.797c-0.446,0-0.819,0.169-1.12,0.506c-0.3,0.337-0.451,0.768-0.451,1.291v3.229h-0.907V9.792h0.907
		v0.939h0.022c0.424-0.719,1.043-1.077,1.857-1.077c0.622,0,1.097,0.202,1.423,0.607c0.326,0.405,0.489,0.981,0.489,1.725V15.453z
		 M71.836,15.453h-0.907V7.072h0.907V15.453z M78.812,12.601c0,0.899-0.255,1.622-0.766,2.17c-0.511,0.547-1.195,0.821-2.054,0.821
		c-0.837,0-1.505-0.267-2.004-0.8c-0.499-0.532-0.749-1.233-0.749-2.103c0-0.936,0.256-1.676,0.768-2.219
		c0.512-0.544,1.218-0.815,2.118-0.815c0.84,0,1.498,0.262,1.974,0.787C78.574,10.967,78.812,11.686,78.812,12.601z M77.883,12.634
		c0-0.711-0.158-1.257-0.473-1.637c-0.315-0.38-0.766-0.569-1.352-0.569c-0.582,0-1.043,0.194-1.382,0.583
		c-0.339,0.39-0.509,0.938-0.509,1.645c0,0.679,0.171,1.208,0.512,1.59c0.341,0.382,0.801,0.572,1.379,0.572
		c0.589,0,1.041-0.189,1.354-0.564C77.727,13.878,77.883,13.338,77.883,12.634z M84.225,15.453h-0.907v-0.885h-0.022
		c-0.395,0.682-0.975,1.023-1.742,1.023c-0.545,0-0.982-0.148-1.31-0.445c-0.328-0.297-0.492-0.696-0.492-1.197
		c0-1.054,0.623-1.669,1.868-1.847l1.698-0.237c0-0.958-0.389-1.438-1.167-1.438c-0.682,0-1.297,0.231-1.846,0.691V10.19
		c0.166-0.126,0.449-0.246,0.851-0.362c0.402-0.116,0.759-0.174,1.073-0.174c1.331,0,1.996,0.705,1.996,2.117V15.453z M83.318,12.59
		l-1.371,0.193c-0.468,0.066-0.796,0.178-0.984,0.334c-0.188,0.157-0.282,0.41-0.282,0.761c0,0.283,0.101,0.511,0.304,0.683
		c0.203,0.171,0.462,0.257,0.78,0.257c0.45,0,0.821-0.158,1.114-0.476c0.293-0.316,0.439-0.713,0.439-1.188V12.59z M90.721,15.453
		h-0.907v-0.962h-0.023c-0.42,0.733-1.069,1.101-1.946,1.101c-0.715,0-1.285-0.258-1.709-0.771c-0.424-0.515-0.636-1.201-0.636-2.06
		c0-0.937,0.235-1.688,0.705-2.256c0.47-0.567,1.099-0.851,1.888-0.851c0.774,0,1.34,0.306,1.697,0.917h0.023V7.072h0.907V15.453z
		 M89.814,12.894v-0.835c0-0.468-0.156-0.857-0.467-1.166c-0.312-0.31-0.69-0.465-1.136-0.465c-0.545,0-0.979,0.202-1.299,0.606
		c-0.321,0.403-0.481,0.963-0.481,1.678c0,0.648,0.151,1.162,0.454,1.54c0.302,0.378,0.71,0.566,1.222,0.566
		c0.498,0,0.907-0.181,1.228-0.542C89.653,13.914,89.814,13.454,89.814,12.894z M97.991,7.868c-0.177-0.1-0.378-0.149-0.603-0.149
		c-0.634,0-0.951,0.4-0.951,1.2v0.873h1.327v0.769h-1.327v4.893H95.53v-4.893h-0.962V9.792h0.962V8.874
		c0-0.574,0.169-1.039,0.509-1.393c0.339-0.354,0.77-0.531,1.294-0.531c0.276,0,0.496,0.033,0.658,0.1V7.868z M101.689,10.71
		c-0.163-0.122-0.393-0.183-0.692-0.183c-0.401,0-0.728,0.189-0.978,0.566c-0.25,0.378-0.376,0.869-0.376,1.474v2.886h-0.907V9.792
		h0.907v1.167h0.023c0.125-0.391,0.318-0.7,0.58-0.927c0.262-0.226,0.562-0.34,0.902-0.34c0.236,0,0.416,0.026,0.542,0.077V10.71z
		 M107.673,12.601c0,0.899-0.255,1.622-0.766,2.17c-0.511,0.547-1.195,0.821-2.054,0.821c-0.837,0-1.505-0.267-2.004-0.8
		c-0.5-0.532-0.75-1.233-0.75-2.103c0-0.936,0.256-1.676,0.769-2.219c0.512-0.544,1.218-0.815,2.118-0.815
		c0.84,0,1.498,0.262,1.974,0.787C107.435,10.967,107.673,11.686,107.673,12.601z M106.744,12.634c0-0.711-0.158-1.257-0.473-1.637
		c-0.315-0.38-0.766-0.569-1.352-0.569c-0.583,0-1.043,0.194-1.383,0.583c-0.338,0.39-0.508,0.938-0.508,1.645
		c0,0.679,0.171,1.208,0.512,1.59c0.341,0.382,0.801,0.572,1.379,0.572c0.589,0,1.041-0.189,1.354-0.564
		C106.587,13.878,106.744,13.338,106.744,12.634z M117.115,15.453h-0.907v-3.251c0-0.634-0.097-1.088-0.29-1.362
		c-0.194-0.274-0.519-0.412-0.976-0.412c-0.387,0-0.716,0.177-0.987,0.531c-0.27,0.354-0.406,0.775-0.406,1.266v3.229h-0.907v-3.361
		c0-1.109-0.429-1.664-1.288-1.664c-0.398,0-0.726,0.167-0.984,0.5c-0.258,0.334-0.387,0.766-0.387,1.297v3.229h-0.907V9.792h0.907
		v0.896h0.022c0.401-0.689,0.986-1.033,1.752-1.033c0.368,0,0.7,0.102,0.995,0.31c0.295,0.206,0.499,0.495,0.614,0.867
		c0.42-0.785,1.046-1.177,1.879-1.177c1.246,0,1.869,0.77,1.869,2.311V15.453z"/>
	<path fill="#FFFFFF" d="M56.478,20.543l-3.336,11.808h-1.621l-2.431-8.637c-0.093-0.324-0.152-0.723-0.18-1.194h-0.033
		c-0.043,0.405-0.118,0.799-0.222,1.178l-2.446,8.653h-1.605l-3.45-11.808h1.515l2.512,9.058c0.105,0.4,0.172,0.796,0.206,1.186
		h0.033c0.026-0.335,0.11-0.729,0.247-1.186l2.618-9.058h1.333l2.495,9.123c0.094,0.341,0.16,0.706,0.197,1.095h0.033
		c0.027-0.285,0.102-0.66,0.223-1.127l2.413-9.091H56.478z M59.157,21.146c0,0.253-0.088,0.463-0.264,0.629
		c-0.175,0.168-0.383,0.252-0.625,0.252c-0.247,0-0.455-0.081-0.625-0.242c-0.17-0.163-0.255-0.376-0.255-0.639
		c0-0.235,0.084-0.44,0.252-0.614c0.167-0.172,0.377-0.26,0.629-0.26c0.253,0,0.464,0.086,0.635,0.257
		C59.071,20.697,59.157,20.903,59.157,21.146z M58.926,32.351h-1.351v-8.432h1.351V32.351z M67.969,32.351h-1.352v-4.809
		c0-1.784-0.653-2.677-1.958-2.677c-0.665,0-1.221,0.252-1.668,0.754c-0.448,0.502-0.672,1.143-0.672,1.923v4.809h-1.349v-8.432
		h1.349v1.399h0.033c0.632-1.069,1.553-1.604,2.767-1.604c0.928,0,1.634,0.302,2.12,0.905c0.486,0.604,0.729,1.46,0.729,2.568
		V32.351z M77.339,32.351h-1.35v-1.433h-0.033c-0.626,1.093-1.592,1.639-2.898,1.639c-1.066,0-1.913-0.383-2.545-1.148
		c-0.63-0.767-0.946-1.788-0.946-3.066c0-1.395,0.35-2.515,1.05-3.36c0.699-0.845,1.637-1.267,2.812-1.267
		c1.152,0,1.996,0.455,2.527,1.366h0.033v-5.213h1.35V32.351z M75.989,28.538v-1.243c0-0.697-0.232-1.275-0.696-1.738
		c-0.464-0.461-1.027-0.691-1.692-0.691c-0.812,0-1.456,0.301-1.934,0.902c-0.478,0.601-0.718,1.434-0.718,2.499
		c0,0.966,0.226,1.729,0.676,2.293c0.45,0.563,1.056,0.844,1.82,0.844c0.74,0,1.351-0.268,1.827-0.808
		C75.752,30.059,75.989,29.373,75.989,28.538z M87.31,28.102c0,1.34-0.38,2.417-1.142,3.232c-0.76,0.815-1.779,1.223-3.059,1.223
		c-1.245,0-2.241-0.396-2.984-1.189c-0.744-0.794-1.115-1.838-1.115-3.134c0-1.394,0.381-2.496,1.145-3.306
		c0.763-0.809,1.813-1.214,3.153-1.214c1.251,0,2.23,0.391,2.939,1.173C86.955,25.669,87.31,26.74,87.31,28.102z M85.926,28.151
		c0-1.06-0.235-1.871-0.704-2.438c-0.47-0.566-1.141-0.849-2.014-0.849c-0.867,0-1.554,0.29-2.058,0.869
		c-0.505,0.579-0.758,1.396-0.758,2.449c0,1.011,0.254,1.799,0.762,2.367c0.506,0.568,1.192,0.852,2.053,0.852
		c0.878,0,1.551-0.279,2.018-0.839C85.693,30.004,85.926,29.199,85.926,28.151z M99.601,23.919l-2.528,8.432h-1.399l-1.737-6.035
		c-0.06-0.209-0.104-0.467-0.132-0.773h-0.034c-0.017,0.192-0.073,0.443-0.172,0.757l-1.886,6.052h-1.35l-2.545-8.432h1.417
		l1.736,6.34c0.055,0.22,0.094,0.474,0.116,0.758h0.065c0.01-0.208,0.062-0.466,0.156-0.774l1.936-6.323h1.235l1.753,6.357
		c0.054,0.214,0.093,0.467,0.115,0.758h0.065c0.013-0.264,0.056-0.517,0.133-0.758l1.721-6.357H99.601z M105.354,30.094
		c0,0.73-0.281,1.323-0.844,1.779c-0.562,0.455-1.311,0.684-2.243,0.684c-0.796,0-1.494-0.171-2.092-0.511v-1.45
		c0.664,0.539,1.395,0.808,2.19,0.808c1.069,0,1.606-0.392,1.606-1.177c0-0.318-0.104-0.578-0.313-0.778
		c-0.209-0.2-0.684-0.471-1.425-0.812c-0.746-0.318-1.274-0.659-1.581-1.024c-0.308-0.365-0.461-0.851-0.461-1.454
		c0-0.696,0.28-1.278,0.84-1.746c0.56-0.466,1.271-0.698,2.133-0.698c0.664,0,1.265,0.131,1.804,0.396v1.357
		c-0.55-0.4-1.186-0.602-1.91-0.602c-0.446,0-0.803,0.11-1.075,0.33c-0.272,0.22-0.408,0.503-0.408,0.849
		c0,0.373,0.105,0.659,0.313,0.86c0.209,0.199,0.64,0.438,1.293,0.711c0.801,0.342,1.364,0.697,1.687,1.071
		C105.192,29.06,105.354,29.529,105.354,30.094z"/>
	<path fill="#FFFFFF" d="M117.371,29.371c0,0.993-0.352,1.773-1.054,2.338c-0.703,0.565-1.658,0.849-2.865,0.849
		c-0.439,0-0.935-0.073-1.486-0.219c-0.552-0.146-0.943-0.298-1.173-0.457v-1.639c0.335,0.303,0.775,0.555,1.321,0.758
		c0.546,0.203,1.055,0.305,1.528,0.305c1.515,0,2.272-0.59,2.272-1.771c0-0.494-0.162-0.918-0.485-1.273
		c-0.324-0.353-0.988-0.819-1.993-1.395c-0.972-0.549-1.652-1.07-2.042-1.565c-0.39-0.494-0.585-1.095-0.585-1.803
		c0-0.934,0.349-1.692,1.046-2.277c0.697-0.585,1.598-0.877,2.701-0.877c1.06,0,1.833,0.14,2.322,0.42v1.548
		c-0.615-0.482-1.414-0.725-2.396-0.725c-0.653,0-1.188,0.164-1.602,0.49c-0.415,0.327-0.622,0.759-0.622,1.297
		c0,0.39,0.062,0.703,0.186,0.939c0.123,0.236,0.332,0.47,0.625,0.7c0.294,0.23,0.79,0.541,1.486,0.931
		c1.043,0.582,1.773,1.131,2.19,1.647C117.162,28.108,117.371,28.701,117.371,29.371z M122.951,32.27
		c-0.324,0.181-0.747,0.271-1.268,0.271c-1.471,0-2.207-0.829-2.207-2.487v-4.989h-1.449V23.92h1.449v-2.059l1.351-0.436v2.495
		h2.124v1.145h-2.124v4.759c0,0.566,0.096,0.968,0.288,1.207c0.192,0.238,0.513,0.357,0.963,0.357c0.334,0,0.626-0.09,0.873-0.271
		V32.27z M132.26,28.103c0,1.34-0.38,2.417-1.141,3.232c-0.76,0.814-1.78,1.223-3.059,1.223c-1.246,0-2.241-0.396-2.985-1.19
		c-0.744-0.793-1.116-1.837-1.116-3.133c0-1.395,0.381-2.496,1.145-3.306c0.763-0.81,1.814-1.215,3.154-1.215
		c1.251,0,2.232,0.391,2.94,1.173C131.906,25.669,132.26,26.741,132.26,28.103z M130.877,28.152c0-1.059-0.235-1.872-0.704-2.438
		c-0.469-0.565-1.141-0.849-2.013-0.849c-0.868,0-1.554,0.29-2.059,0.869c-0.505,0.579-0.758,1.396-0.758,2.449
		c0,1.011,0.254,1.8,0.762,2.368c0.508,0.567,1.193,0.852,2.055,0.852c0.877,0,1.551-0.279,2.017-0.84
		C130.644,30.005,130.877,29.2,130.877,28.152z M138.074,25.286c-0.242-0.181-0.584-0.271-1.029-0.271
		c-0.599,0-1.085,0.281-1.458,0.844c-0.374,0.563-0.56,1.295-0.56,2.194v4.299h-1.351V23.92h1.351v1.737h0.033
		c0.187-0.582,0.475-1.042,0.864-1.38c0.39-0.337,0.837-0.506,1.342-0.506c0.352,0,0.621,0.038,0.807,0.115V25.286z M146.209,28.474
		h-5.954c0.022,0.949,0.273,1.675,0.753,2.178c0.48,0.502,1.146,0.753,1.997,0.753c0.955,0,1.825-0.307,2.61-0.922v1.26
		c-0.735,0.544-1.712,0.815-2.931,0.815c-1.202,0-2.141-0.389-2.816-1.165c-0.675-0.777-1.013-1.852-1.013-3.224
		c0-0.835,0.169-1.597,0.506-2.285c0.338-0.69,0.803-1.224,1.396-1.602c0.593-0.379,1.251-0.568,1.976-0.568
		c1.092,0,1.945,0.355,2.557,1.066c0.612,0.711,0.918,1.706,0.918,2.984V28.474z M144.826,27.328
		c-0.011-0.779-0.199-1.384-0.564-1.815c-0.365-0.431-0.88-0.646-1.544-0.646c-0.626,0-1.161,0.226-1.605,0.676
		c-0.445,0.45-0.725,1.046-0.84,1.786H144.826z"/>
</g>
</svg>
